<svg width="27" height="23" viewBox="0 0 27 23" fill="none" xmlns="http://www.w3.org/2000/svg">
<path d="M26.7018 13.2408C26.7017 13.2407 26.7017 13.2406 26.7017 13.2405L21.7928 0.914614C21.6886 0.652722 21.3917 0.52487 21.1298 0.629053C21.1296 0.629117 21.1294 0.62918 21.1293 0.629308L1.21447 8.55919C1.13326 8.59428 1.06282 8.65029 1.01032 8.72149C0.844697 8.80756 0.740068 8.9779 0.738281 9.16451V22.4346C0.738281 22.7164 0.966807 22.945 1.24867 22.945H22.6849C22.9668 22.945 23.1953 22.7164 23.1953 22.4346V15.1871L26.4169 13.904C26.6787 13.7995 26.8062 13.5026 26.7018 13.2408ZM22.1745 21.9242H1.75906V9.6749H22.1745V21.9242ZM9.25409 8.65667L17.8 5.25137C18.5627 6.05306 19.6195 6.50871 20.7261 6.51305L21.5784 8.65667H9.25409ZM23.1953 14.0908V9.16451C23.1953 8.88265 22.9668 8.65412 22.6849 8.65412H22.6768L21.5952 5.93784C21.5832 5.91519 21.5693 5.89363 21.5534 5.87353C21.4987 5.62772 21.271 5.45999 21.02 5.48054C19.9905 5.57438 18.9833 5.14068 18.3441 4.32808C18.185 4.13177 17.9055 4.08297 17.6893 4.21376C17.665 4.21663 17.641 4.22109 17.6173 4.22703L7.18396 8.38158C7.0577 8.43108 6.95671 8.52927 6.90375 8.65412H3.73527L21.0333 1.76645L25.565 13.1455L23.1953 14.0908Z" fill="#00AEEF"/>
<path d="M3.14469 18.4792C4.13561 18.7721 4.91101 19.5465 5.20512 20.5371C5.26962 20.7533 5.46848 20.9014 5.69407 20.9015C5.72055 20.8998 5.74683 20.8959 5.77267 20.8898C5.79557 20.8963 5.81899 20.901 5.84259 20.904H18.0919C18.1129 20.9013 18.1337 20.897 18.1541 20.8913C18.4091 20.9533 18.6661 20.7969 18.7282 20.5419C18.7284 20.541 18.7287 20.5401 18.7288 20.5391C19.0222 19.5476 19.7977 18.772 20.7893 18.4787C21.0297 18.4052 21.1791 18.1656 21.1394 17.9173C21.1462 17.8925 21.1511 17.8672 21.1542 17.8417V13.7586C21.1512 13.733 21.1461 13.7078 21.1389 13.6831C21.1789 13.4347 21.0294 13.195 20.7888 13.1217C19.7972 12.8284 19.0219 12.0525 18.7294 11.0607C18.6555 10.8186 18.4135 10.6688 18.1638 10.7106C18.1402 10.704 18.1162 10.6992 18.0919 10.6963H5.84259C5.81688 10.6994 5.79143 10.7045 5.76655 10.7116C5.51831 10.672 5.27881 10.8214 5.20512 11.0617C4.91159 12.0531 4.13612 12.8284 3.14469 13.1217C2.90423 13.1951 2.75482 13.4348 2.79456 13.6831C2.78793 13.7079 2.78314 13.7331 2.78027 13.7586V17.8417C2.78321 17.8657 2.78799 17.8894 2.79456 17.9127C2.75271 18.1626 2.90245 18.4049 3.14469 18.4792ZM3.80105 13.9658C4.8259 13.5542 5.63818 12.7419 6.04981 11.7171H17.8841C18.296 12.7419 19.1084 13.5542 20.1334 13.9658V17.6345C19.1089 18.0466 18.2967 18.8587 17.8847 19.8833H6.04981C5.63774 18.8587 4.82558 18.0466 3.80105 17.6345V13.9658Z" fill="#00AEEF"/>
<path d="M11.9666 18.8619C13.6579 18.8619 15.0289 17.4909 15.0289 15.7996C15.0289 14.1083 13.6579 12.7373 11.9666 12.7373C10.2753 12.7373 8.9043 14.1083 8.9043 15.7996C8.90596 17.4902 10.276 18.8603 11.9666 18.8619ZM11.9666 13.7581C13.0941 13.7581 14.0082 14.6721 14.0082 15.7996C14.0082 16.9271 13.0941 17.8412 11.9666 17.8412C10.8391 17.8412 9.92507 16.9271 9.92507 15.7996C9.92507 14.6721 10.8391 13.7581 11.9666 13.7581Z" fill="#00AEEF"/>
<path d="M6.35249 16.5654C6.77529 16.5654 7.11807 16.2226 7.11807 15.7998C7.11807 15.377 6.77529 15.0342 6.35249 15.0342C5.9297 15.0342 5.58691 15.377 5.58691 15.7998C5.58691 16.2226 5.9297 16.5654 6.35249 16.5654ZM6.35249 15.5446C6.49342 15.5446 6.60769 15.6588 6.60769 15.7998C6.60769 15.9407 6.49342 16.055 6.35249 16.055C6.21156 16.055 6.0973 15.9407 6.0973 15.7998C6.0973 15.6588 6.21156 15.5446 6.35249 15.5446Z" fill="#00AEEF"/>
<path d="M17.581 16.5654C18.0038 16.5654 18.3466 16.2226 18.3466 15.7998C18.3466 15.377 18.0038 15.0342 17.581 15.0342C17.1582 15.0342 16.8154 15.377 16.8154 15.7998C16.8154 16.2226 17.1582 16.5654 17.581 16.5654ZM17.581 15.5446C17.7219 15.5446 17.8362 15.6588 17.8362 15.7998C17.8362 15.9407 17.7219 16.055 17.581 16.055C17.4401 16.055 17.3258 15.9407 17.3258 15.7998C17.3258 15.6588 17.4401 15.5446 17.581 15.5446Z" fill="#00AEEF"/>
</svg>
